<svg width="97" height="44" viewBox="0 0 97 44" fill="none" xmlns="http://www.w3.org/2000/svg">
<g clip-path="url(#clip0_1_174)">
<path d="M0.743201 0.729541C1.26409 0.388204 1.88364 0.226984 2.50599 0.270823L3.34383 0.313195C4.84156 0.313195 5.90615 0.576021 6.53762 1.10167C7.16909 1.62732 7.48668 2.53248 7.49038 3.81713V13.2328C7.49038 15.4533 8.63592 16.563 10.927 16.5617C11.8372 16.5861 12.7412 16.4066 13.5721 16.0367V2.72284C13.5721 1.72926 13.8193 1.06483 14.3136 0.729541C14.8344 0.388204 15.454 0.226984 16.0764 0.270823L16.9123 0.313195C18.4125 0.313195 19.4778 0.576021 20.108 1.10167C20.7382 1.62732 21.0539 2.53248 21.0552 3.81713V17.131C21.0552 18.3862 20.5998 19.3785 19.6891 20.108C18.7783 20.8376 17.3974 21.4216 15.5462 21.86C14.0168 22.222 12.449 22.3989 10.8769 22.3869C7.38102 22.3869 4.69265 21.6205 2.81184 20.0878C0.931035 18.555 -0.00566183 16.27 0.00175266 13.2328V2.73205C0.00175266 1.73356 0.248902 1.06606 0.743201 0.729541Z" fill="#051626"/>
<path d="M46.0086 11.2616C46.0086 14.8233 45.0466 17.5756 43.1225 19.5185C41.1985 21.4615 38.4872 22.4317 34.9888 22.4292C33.6196 22.4292 32.4537 22.2413 31.4911 21.8655V27.0791C31.4911 28.7592 30.6878 29.5704 29.0813 29.5127H28.1193C26.6364 29.5127 25.586 29.2597 24.9682 28.7537C24.3503 28.2477 24.0413 27.3419 24.0413 26.0364V5.17117C24.0239 4.53125 24.1808 3.89855 24.4955 3.33998C24.8683 2.76526 25.3607 2.27655 25.9395 1.90672C26.9763 1.24094 28.1234 0.762574 29.3279 0.493725C30.7961 0.147697 32.3011 -0.019944 33.8099 -0.00552102C37.6284 -0.00552102 40.5429 0.907001 42.5535 2.73204C44.8581 4.73394 46.0098 7.57713 46.0086 11.2616ZM34.0713 5.77911C33.1567 5.78194 32.2566 6.00576 31.4484 6.43126V15.9906C32.212 16.3642 33.0465 16.5733 33.8971 16.6041C36.8974 16.6041 38.3983 14.8233 38.3995 11.2616C38.3995 7.60783 36.9568 5.78033 34.0713 5.77911Z" fill="#051626"/>
<path d="M69.3958 11.2616C69.3958 14.8233 68.4338 17.5756 66.5097 19.5185C64.5857 21.4615 61.8744 22.4317 58.376 22.4292C57.0056 22.4292 55.8397 22.2413 54.8783 21.8655V27.0791C54.8783 28.7592 54.075 29.5704 52.4686 29.5127H51.5065C50.0236 29.5127 48.9732 29.2597 48.3554 28.7537C47.7375 28.2477 47.4286 27.3419 47.4286 26.0364V5.17117C47.4111 4.53125 47.568 3.89855 47.8827 3.33998C48.2559 2.76551 48.7482 2.27687 49.3267 1.90672C50.3635 1.24094 51.5107 0.762574 52.7151 0.493725C54.1833 0.147697 55.6883 -0.019944 57.1971 -0.00552102C61.0156 -0.00552102 63.9301 0.907001 65.9407 2.73204C68.2453 4.73394 69.3971 7.57713 69.3958 11.2616ZM57.4641 5.77911C56.5495 5.78194 55.6494 6.00576 54.8412 6.43126V15.9906C55.6014 16.3627 56.4319 16.5717 57.2787 16.6041C60.2816 16.6041 61.7824 14.8233 61.7811 11.2616C61.7849 7.60783 60.3458 5.78033 57.4641 5.77911Z" fill="#051626"/>
<path d="M96.2456 1.21034C94.1139 0.0423571 89.934 -0.263455 89.517 2.69702C89.5013 2.69421 89.4858 2.69052 89.4706 2.68597C88.1138 7.90687 86.2972 12.3927 84.1563 16.2356C83.1609 14.2092 80.3082 2.27883 78.4286 1.10164C76.5564 -0.246874 71.3663 -0.035017 71.307 3.06731C72.4748 9.68647 75.9003 18.4555 78.7419 23.7391C70.61 33.9745 57.4252 36.9626 49.1154 36.386C45.258 36.1005 41.8381 34.063 40.0939 36.9221C39.9678 37.1284 39.6008 37.7087 39.2542 38.2854C39.0336 38.6538 38.8241 39.013 38.6981 39.2783C38.6052 39.5075 38.5429 39.7478 38.5127 39.9931C38.4553 42.1541 41.6843 42.996 43.8882 43.3515C72.6805 48.0326 91.9582 26.4177 96.1659 7.12023C96.2252 6.8439 96.279 6.56756 96.3364 6.29491C97.0686 2.86282 97.3948 1.91775 96.2456 1.21034Z" fill="#051626"/>
</g>
<defs>
<clipPath id="clip0_1_174">
<rect width="97" height="44" fill="white"/>
</clipPath>
</defs>
</svg>
